<svg width="24" height="24" viewBox="0 0 24 24" fill="none" xmlns="http://www.w3.org/2000/svg">
<path d="M8.21707 0.643626C5.26857 1.65782 2.71852 3.84225 1.28411 6.57278C0.805978 7.50897 0.407532 8.52316 0.248154 9.61538C-0.30967 12.1899 0.0887759 14.9984 1.28411 17.3389C2.081 18.8992 3.19665 20.2254 4.63106 21.3177C5.90608 22.3319 7.42018 23.112 9.09365 23.5021C11.1656 24.0482 13.3172 24.0482 15.3094 23.5801C17.1423 23.19 18.8954 22.3319 20.3298 21.0056C21.8439 19.6793 22.8799 17.963 23.4377 16.0126C24.0752 13.9842 24.1549 11.7998 23.7565 9.69339C19.9314 9.69339 16.1063 9.69339 12.2812 9.69339C12.2812 11.2537 12.2812 12.814 12.2812 14.3743C14.5125 14.3743 16.7438 14.3743 18.8954 14.3743C18.6563 15.8566 17.7001 17.2609 16.4251 18.041C15.6282 18.5871 14.6719 18.8992 13.7156 19.0552C12.7594 19.2113 11.7234 19.2113 10.7671 19.0552C9.81085 18.8992 8.85458 18.4311 8.05769 17.885C6.78266 17.0268 5.74671 15.7006 5.26857 14.2183C4.71075 12.736 4.71075 11.0977 5.26857 9.53736C5.66702 8.52316 6.22484 7.50897 7.02173 6.72881C7.978 5.71461 9.25303 5.01248 10.6874 4.77843C11.8828 4.54439 13.0781 4.54439 14.2734 4.93446C15.2297 5.24652 16.186 5.79263 16.9032 6.41675C17.6204 5.71462 18.4173 4.93446 19.1345 4.23233C19.5329 3.84225 19.9314 3.45217 20.3298 3.0621C19.2142 2.0479 17.8595 1.18973 16.4251 0.643626C13.7953 -0.214542 10.8468 -0.214542 8.21707 0.643626Z" fill="white"/>
<path d="M8.21689 0.643591C10.8466 -0.214576 13.7951 -0.214576 16.4249 0.721607C17.8593 1.26771 19.214 2.04787 20.3296 3.14008C19.9312 3.53015 19.5328 3.92023 19.1343 4.31031C18.4171 5.01244 17.6202 5.7926 16.903 6.49473C16.1858 5.7926 15.2295 5.24649 14.2733 5.01244C13.1576 4.70038 11.8826 4.62237 10.6873 4.85641C9.33254 5.16847 8.05751 5.87061 7.02155 6.80679C6.22466 7.58695 5.58715 8.60114 5.26839 9.61534C3.91368 8.60114 2.63865 7.58695 1.28394 6.57275C2.71834 3.84222 5.26839 1.65779 8.21689 0.643591Z" fill="#EA4335"/>
<path d="M0.248154 9.61535C0.487222 8.60115 0.805978 7.58695 1.28411 6.57275C2.63883 7.58695 3.91386 8.60115 5.26857 9.61535C4.71075 11.0976 4.71075 12.736 5.26857 14.2963C3.91386 15.3105 2.63883 16.3247 1.28411 17.3389C0.0887759 14.9204 -0.30967 12.1899 0.248154 9.61535Z" fill="#FBBC05"/>
<path d="M12.2015 9.69336C16.0266 9.69336 19.8517 9.69336 23.6768 9.69336C24.0752 11.7998 23.9955 13.9842 23.358 16.0126C22.8002 17.885 21.7642 19.6013 20.2501 21.0056C18.9751 19.9914 17.7001 19.0552 16.3454 18.041C17.6204 17.1828 18.497 15.8566 18.8157 14.3743C16.5844 14.3743 14.3531 14.3743 12.2015 14.3743C12.2015 12.814 12.2015 11.2537 12.2015 9.69336Z" fill="#4285F4"/>
<path d="M1.28394 17.3389C2.63865 16.3247 3.91368 15.3105 5.26839 14.2963C5.74653 15.7786 6.78249 17.1048 8.05751 17.963C8.85441 18.5091 9.81068 18.8992 10.7669 19.1332C11.7232 19.2892 12.6795 19.2892 13.7154 19.1332C14.6717 18.9772 15.628 18.5871 16.4249 18.119C17.6999 19.1332 18.9749 20.0694 20.3296 21.0836C18.8952 22.3318 17.2218 23.19 15.3092 23.6581C13.2373 24.1262 11.0857 24.1262 9.09347 23.5801C7.49969 23.19 5.9856 22.4098 4.63088 21.3956C3.27616 20.2254 2.08083 18.8211 1.28394 17.3389Z" fill="#34A853"/>
</svg>
