<svg width="25" height="25" viewBox="0 0 25 25" fill="none" xmlns="http://www.w3.org/2000/svg">
<path d="M22.9167 9.35414V18.75C22.9167 19.8958 21.9792 20.8333 20.8334 20.8333H4.16671C3.02087 20.8333 2.08337 19.8958 2.08337 18.75V6.24998C2.08337 5.10415 3.02087 4.16665 4.16671 4.16665H14.6875C14.625 4.49998 14.5834 4.85415 14.5834 5.20831C14.5834 6.74998 15.2605 8.11456 16.323 9.0729L12.5 11.4583L4.16671 6.24998V8.33331L12.5 13.5416L18.0209 10.0833C18.5834 10.2916 19.1667 10.4166 19.7917 10.4166C20.9688 10.4166 22.0417 10.0104 22.9167 9.35414ZM16.6667 5.20831C16.6667 6.93748 18.0625 8.33331 19.7917 8.33331C21.5209 8.33331 22.9167 6.93748 22.9167 5.20831C22.9167 3.47915 21.5209 2.08331 19.7917 2.08331C18.0625 2.08331 16.6667 3.47915 16.6667 5.20831Z" fill="#626262"/>
</svg>
