<svg width="25" height="25" viewBox="0 0 25 25" fill="none" xmlns="http://www.w3.org/2000/svg">
<path d="M18.75 8.33335H20.8333C21.1096 8.33335 21.3746 8.4431 21.5699 8.63845C21.7653 8.8338 21.875 9.09875 21.875 9.37502V21.875C21.875 22.1513 21.7653 22.4162 21.5699 22.6116C21.3746 22.8069 21.1096 22.9167 20.8333 22.9167H4.16667C3.8904 22.9167 3.62545 22.8069 3.4301 22.6116C3.23475 22.4162 3.125 22.1513 3.125 21.875V9.37502C3.125 9.09875 3.23475 8.8338 3.4301 8.63845C3.62545 8.4431 3.8904 8.33335 4.16667 8.33335H6.25V7.29169C6.25 5.63408 6.90848 4.04437 8.08058 2.87227C9.25269 1.70017 10.8424 1.04169 12.5 1.04169C14.1576 1.04169 15.7473 1.70017 16.9194 2.87227C18.0915 4.04437 18.75 5.63408 18.75 7.29169V8.33335ZM16.6667 8.33335V7.29169C16.6667 6.18662 16.2277 5.12681 15.4463 4.34541C14.6649 3.56401 13.6051 3.12502 12.5 3.12502C11.3949 3.12502 10.3351 3.56401 9.55372 4.34541C8.77232 5.12681 8.33333 6.18662 8.33333 7.29169V8.33335H16.6667ZM11.4583 14.5834V16.6667H13.5417V14.5834H11.4583ZM7.29167 14.5834V16.6667H9.375V14.5834H7.29167ZM15.625 14.5834V16.6667H17.7083V14.5834H15.625Z" fill="#626262"/>
</svg>
